<?xml version="1.0" standalone="no"?>
<!DOCTYPE svg PUBLIC "-//W3C//DTD SVG 20010904//EN"
 "http://www.w3.org/TR/2001/REC-SVG-20010904/DTD/svg10.dtd">
<svg version="1.0" xmlns="http://www.w3.org/2000/svg"
 width="266.000000pt" height="262.000000pt" viewBox="0 0 266.000000 262.000000"
 preserveAspectRatio="xMidYMid meet">

<g transform="translate(0.000000,262.000000) scale(0.100000,-0.100000)"
fill="#000000" stroke="none">
<path d="M0 1310 l0 -1310 1330 0 1330 0 0 1310 0 1310 -1330 0 -1330 0 0
-1310z m995 705 c17 -12 112 -174 250 -425 l223 -405 -86 -8 c-51 -5 -95 -4
-107 1 -12 6 -70 101 -144 238 -199 367 -242 444 -251 444 -4 0 -90 -152 -190
-337 -100 -186 -188 -342 -194 -346 -12 -9 -183 -3 -192 6 -3 3 34 79 84 169
106 194 248 452 309 563 64 115 78 124 200 121 54 -1 79 -6 98 -21z m1283 -62
l3 -83 -334 0 c-390 0 -380 2 -381 -88 -2 -88 -9 -86 317 -92 262 -5 285 -7
329 -27 31 -14 56 -36 75 -64 26 -39 28 -51 31 -156 3 -101 1 -118 -19 -159
-23 -49 -61 -78 -122 -95 -47 -13 -607 -22 -626 -10 -7 5 -33 42 -56 82 l-43
74 322 5 c176 4 322 7 323 8 1 1 9 9 17 18 24 24 22 118 -4 144 -19 19 -33 20
-263 20 -337 0 -397 14 -449 105 -26 48 -37 185 -19 252 21 78 80 128 170 143
25 4 199 7 386 6 l340 -1 3 -82z m-1366 -400 c16 -15 18 -36 18 -250 l0 -233
-45 0 -45 0 0 240 c0 217 2 240 18 249 24 14 33 13 54 -6z m129 -143 c18 -10
19 -23 19 -176 l0 -165 -42 3 -43 3 -3 157 c-2 132 0 159 13 172 19 19 29 20
56 6z m-252 -102 c5 -13 8 -70 7 -128 l-1 -105 -44 0 -45 0 3 120 c1 66 5 123
7 127 3 5 19 8 35 8 22 0 32 -6 38 -22z m395 -110 c9 -12 16 -37 16 -55 l0
-33 130 0 130 0 0 -48 c0 -52 -12 -72 -45 -72 -29 0 -45 19 -45 52 l0 27 -132
3 -133 3 1 57 c1 32 7 65 14 73 18 22 46 19 64 -7z m-536 -20 c7 -7 12 -34 12
-60 l0 -48 -185 0 c-178 0 -185 1 -185 20 0 19 7 20 140 20 115 0 140 3 140
14 0 8 4 26 10 40 10 28 47 35 68 14z m942 -166 c0 -104 -7 -122 -47 -122 -33
0 -43 29 -43 129 l0 91 45 0 45 0 0 -98z m140 -85 c0 -193 -7 -227 -49 -227
-38 0 -41 18 -41 217 l0 193 45 0 45 0 0 -183z m130 54 c0 -104 -3 -133 -16
-145 -20 -20 -38 -20 -58 0 -13 12 -16 41 -16 145 l0 129 45 0 45 0 0 -129z
m465 109 c0 -13 -26 -15 -167 -18 l-168 -2 0 -28 c0 -33 -16 -52 -45 -52 -33
0 -45 20 -45 72 l0 48 213 -2 c181 -3 212 -5 212 -18z m-1752 -486 c-8 -4 -4
-21 12 -57 24 -51 25 -71 3 -49 -16 16 -55 15 -61 0 -2 -7 -8 -10 -12 -6 -12
12 38 118 55 117 9 0 10 -2 3 -5z m-202 -60 c12 -25 17 -49 13 -52 -3 -4 -9
-1 -11 6 -6 15 -45 16 -61 0 -6 -6 -14 -10 -16 -7 -7 7 36 99 46 99 5 0 18
-21 29 -46z m99 14 c0 11 5 24 10 27 6 4 10 -13 10 -44 0 -58 -9 -63 -39 -23
l-20 27 -1 -27 c0 -16 -4 -28 -10 -28 -5 0 -10 23 -10 52 l0 52 30 -29 c28
-27 30 -28 30 -7z m196 -48 c13 0 24 -4 24 -10 0 -5 -16 -10 -35 -10 -35 0
-35 0 -35 43 0 57 14 71 18 18 3 -36 6 -41 28 -41z m64 24 c0 -32 -4 -44 -12
-42 -14 5 -23 61 -14 85 11 27 26 2 26 -43z m85 46 c4 -6 -5 -10 -19 -10 -33
0 -33 -14 0 -29 36 -16 28 -45 -14 -49 -19 -2 -32 1 -32 8 0 7 8 9 19 5 30 -9
36 14 7 25 -27 10 -36 44 -13 53 21 9 46 7 52 -3z m45 -40 c0 -27 -4 -50 -10
-50 -5 0 -10 23 -10 50 0 28 5 50 10 50 6 0 10 -22 10 -50z m85 40 c4 -6 -5
-10 -19 -10 -14 0 -26 -4 -26 -10 0 -5 6 -10 14 -10 8 0 22 -7 31 -16 12 -12
13 -19 4 -30 -14 -17 -69 -19 -69 -3 0 6 9 9 20 6 30 -8 35 12 6 23 -27 10
-36 44 -13 53 21 9 46 7 52 -3z m128 1 c56 -22 34 -91 -28 -91 l-35 0 0 50 c0
54 10 61 63 41z m117 -1 c0 -5 -11 -10 -25 -10 -14 0 -25 -4 -25 -10 0 -5 11
-10 25 -10 14 0 25 -4 25 -10 0 -5 -9 -10 -19 -10 -11 0 -23 -4 -26 -10 -3 -6
5 -10 19 -10 14 0 28 -4 31 -10 4 -6 -10 -10 -34 -10 l-41 0 0 43 c0 24 3 47
7 50 10 11 63 8 63 -3z m125 0 c4 -6 -5 -10 -19 -10 -14 0 -26 -4 -26 -10 0
-5 6 -10 14 -10 8 0 22 -7 31 -16 21 -22 3 -44 -36 -44 -37 0 -38 17 -1 22
l27 4 -27 12 c-30 12 -35 31 -16 50 15 15 45 16 53 2z m95 0 c0 -5 -11 -10
-25 -10 -14 0 -25 -4 -25 -10 0 -5 9 -10 19 -10 11 0 23 -4 26 -10 4 -6 -5
-10 -19 -10 -14 0 -26 -4 -26 -10 0 -5 11 -10 25 -10 14 0 25 -4 25 -10 0 -5
-16 -10 -35 -10 -35 0 -35 0 -35 43 0 24 3 47 7 50 10 11 63 8 63 -3z m64 -22
l26 -33 0 33 c0 17 5 32 10 32 6 0 10 -22 10 -50 0 -56 -9 -62 -38 -25 -11 14
-23 25 -26 25 -3 0 -6 -11 -6 -25 0 -14 -4 -25 -10 -25 -5 0 -10 23 -10 50 0
28 4 50 9 50 5 0 21 -15 35 -32z m141 22 c3 -5 -1 -10 -9 -10 -12 0 -16 -11
-16 -41 0 -52 -24 -48 -28 4 -2 25 -8 37 -18 37 -8 0 -12 5 -9 10 3 6 21 10
40 10 19 0 37 -4 40 -10z m35 -40 c0 -27 -4 -50 -10 -50 -5 0 -10 23 -10 50 0
28 5 50 10 50 6 0 10 -22 10 -50z m74 -3 c5 -9 7 -9 12 0 3 7 14 23 24 35 l19
23 1 -52 c0 -29 -4 -53 -10 -53 -5 0 -10 10 -10 23 -1 22 -1 22 -16 2 -15 -20
-15 -20 -30 -1 -14 19 -14 19 -14 -2 0 -12 -4 -22 -10 -22 -5 0 -10 24 -10 53
l1 52 19 -23 c10 -12 21 -28 24 -35z m106 3 c0 -27 -4 -50 -10 -50 -5 0 -10
23 -10 50 0 28 5 50 10 50 6 0 10 -22 10 -50z m90 40 c0 -5 -11 -10 -25 -10
-14 0 -25 -4 -25 -10 0 -5 11 -10 25 -10 14 0 25 -4 25 -10 0 -5 -9 -10 -19
-10 -11 0 -23 -4 -26 -10 -3 -6 5 -10 19 -10 14 0 28 -4 31 -10 4 -6 -10 -10
-34 -10 l-41 0 0 43 c0 24 3 47 7 50 10 11 63 8 63 -3z m90 -22 c0 18 5 32 10
32 6 0 10 -22 10 -50 0 -56 -9 -62 -38 -25 -11 14 -22 25 -25 25 -2 0 -2 -11
1 -25 3 -18 0 -25 -12 -25 -12 0 -16 10 -16 43 0 59 10 65 42 26 l28 -33 0 32z
m115 22 c3 -5 -1 -10 -9 -10 -12 0 -16 -11 -16 -41 0 -52 -24 -48 -28 4 -2 25
-8 37 -18 37 -8 0 -12 5 -9 10 3 6 21 10 40 10 19 0 37 -4 40 -10z m95 -10
c11 -11 20 -26 20 -34 0 -26 -31 -47 -64 -44 -41 4 -59 47 -31 78 23 25 49 26
75 0z m90 10 c12 -8 9 -10 -12 -10 -35 0 -36 -18 -2 -26 39 -10 29 -48 -13
-52 -21 -2 -33 1 -33 9 0 6 8 9 20 6 30 -8 35 12 6 23 -16 6 -26 17 -26 29 0
28 32 39 60 21z"/>
<path d="M546 545 c-3 -9 0 -15 9 -15 16 0 20 16 6 24 -5 3 -11 -1 -15 -9z"/>
<path d="M336 551 c-4 -7 -5 -15 -2 -18 9 -9 19 4 14 18 -4 11 -6 11 -12 0z"/>
<path d="M1030 540 c0 -27 3 -31 23 -28 16 2 22 10 22 28 0 18 -6 26 -22 28
-20 3 -23 -1 -23 -28z"/>
<path d="M2161 556 c-16 -20 -3 -46 24 -46 27 0 36 17 23 43 -10 20 -31 22
-47 3z"/>
</g>
</svg>
